<mxfile host="www.draw.io" modified="2020-02-11T14:52:27.032Z" agent="Mozilla/5.0 (Windows NT 10.0; Win64; x64) AppleWebKit/537.36 (KHTML, like Gecko) Chrome/80.0.3987.87 Safari/537.36" etag="aKB4FpRrlG_fLgKQxECa" version="12.6.7" type="github">
  <diagram name="Page-1" id="822b0af5-4adb-64df-f703-e8dfc1f81529">
    <mxGraphModel dx="1422" dy="762" grid="0" gridSize="10" guides="1" tooltips="1" connect="1" arrows="1" fold="1" page="1" pageScale="1" pageWidth="1100" pageHeight="850" background="#ffffff" math="0" shadow="0">
      <root>
        <mxCell id="0"/>
        <mxCell id="1" parent="0"/>
        <mxCell id="vFcQCkQcMgolOcBUj4Wx-4" style="edgeStyle=none;rounded=0;orthogonalLoop=1;jettySize=auto;html=1;exitX=1;exitY=0.5;exitDx=0;exitDy=0;entryX=0;entryY=0.5;entryDx=0;entryDy=0;entryPerimeter=0;startArrow=none;startFill=0;endArrow=none;endFill=0;strokeWidth=5;" parent="1" source="7d933b09d9755ecc-13" target="vFcQCkQcMgolOcBUj4Wx-1" edge="1">
          <mxGeometry relative="1" as="geometry"/>
        </mxCell>
        <mxCell id="7d933b09d9755ecc-13" value="" style="ellipse;whiteSpace=wrap;html=1;rounded=0;shadow=0;comic=0;strokeWidth=1;fontFamily=Verdana;" parent="1" vertex="1">
          <mxGeometry x="20" y="423" width="142" height="94" as="geometry"/>
        </mxCell>
        <mxCell id="7d933b09d9755ecc-6" value="上网用户" style="verticalLabelPosition=bottom;aspect=fixed;html=1;verticalAlign=top;strokeColor=none;shape=mxgraph.citrix.users;rounded=0;shadow=0;comic=0;fontFamily=Verdana;fontStyle=1" parent="1" vertex="1">
          <mxGeometry x="58" y="436" width="64.5" height="55" as="geometry"/>
        </mxCell>
        <mxCell id="7d933b09d9755ecc-9" value="" style="verticalLabelPosition=bottom;aspect=fixed;html=1;verticalAlign=top;strokeColor=none;shape=mxgraph.citrix.tower_server;rounded=0;shadow=0;comic=0;fontFamily=Verdana;" parent="1" vertex="1">
          <mxGeometry x="430" y="130" width="65" height="85" as="geometry"/>
        </mxCell>
        <mxCell id="vFcQCkQcMgolOcBUj4Wx-6" style="edgeStyle=none;rounded=0;orthogonalLoop=1;jettySize=auto;html=1;exitX=0.5;exitY=0;exitDx=0;exitDy=0;exitPerimeter=0;entryX=0.462;entryY=1.02;entryDx=0;entryDy=0;entryPerimeter=0;endArrow=none;endFill=0;strokeWidth=5;" parent="1" source="vFcQCkQcMgolOcBUj4Wx-1" target="7d933b09d9755ecc-9" edge="1">
          <mxGeometry relative="1" as="geometry"/>
        </mxCell>
        <mxCell id="vFcQCkQcMgolOcBUj4Wx-1" value="" style="fontColor=#0066CC;verticalAlign=top;verticalLabelPosition=bottom;labelPosition=center;align=center;html=1;outlineConnect=0;fillColor=#CCCCCC;strokeColor=#6881B3;gradientColor=none;gradientDirection=north;strokeWidth=2;shape=mxgraph.networks.firewall;" parent="1" vertex="1">
          <mxGeometry x="412.5" y="420" width="100" height="100" as="geometry"/>
        </mxCell>
        <mxCell id="vFcQCkQcMgolOcBUj4Wx-5" style="edgeStyle=none;rounded=0;orthogonalLoop=1;jettySize=auto;html=1;exitX=0.04;exitY=0.5;exitDx=0;exitDy=0;exitPerimeter=0;entryX=1;entryY=0.5;entryDx=0;entryDy=0;entryPerimeter=0;endArrow=none;endFill=0;strokeWidth=5;" parent="1" source="vFcQCkQcMgolOcBUj4Wx-3" target="vFcQCkQcMgolOcBUj4Wx-1" edge="1">
          <mxGeometry relative="1" as="geometry"/>
        </mxCell>
        <mxCell id="vFcQCkQcMgolOcBUj4Wx-3" value="" style="shape=mxgraph.cisco.storage.cloud;html=1;pointerEvents=1;dashed=0;fillColor=#036897;strokeColor=#ffffff;strokeWidth=2;verticalLabelPosition=bottom;verticalAlign=top;align=center;outlineConnect=0;" parent="1" vertex="1">
          <mxGeometry x="710" y="417" width="186" height="106" as="geometry"/>
        </mxCell>
        <mxCell id="vFcQCkQcMgolOcBUj4Wx-7" value="" style="endArrow=classic;startArrow=classic;html=1;strokeWidth=3;dashed=1;fillColor=#d80073;strokeColor=#A50040;" parent="1" edge="1">
          <mxGeometry width="50" height="50" relative="1" as="geometry">
            <mxPoint x="150" y="440" as="sourcePoint"/>
            <mxPoint x="410" y="440" as="targetPoint"/>
          </mxGeometry>
        </mxCell>
        <mxCell id="vFcQCkQcMgolOcBUj4Wx-8" value="" style="endArrow=classic;startArrow=classic;html=1;strokeWidth=3;dashed=1;fillColor=#d80073;strokeColor=#A50040;exitX=-0.015;exitY=0.906;exitDx=0;exitDy=0;exitPerimeter=0;" parent="1" source="7d933b09d9755ecc-9" edge="1">
          <mxGeometry width="50" height="50" relative="1" as="geometry">
            <mxPoint x="430" y="218.37" as="sourcePoint"/>
            <mxPoint x="430" y="420" as="targetPoint"/>
          </mxGeometry>
        </mxCell>
        <mxCell id="vFcQCkQcMgolOcBUj4Wx-9" value="" style="endArrow=classic;startArrow=classic;html=1;strokeWidth=3;dashed=1;fillColor=#60a917;strokeColor=#2D7600;exitX=0.927;exitY=0.818;exitDx=0;exitDy=0;exitPerimeter=0;" parent="1" source="7d933b09d9755ecc-13" edge="1">
          <mxGeometry width="50" height="50" relative="1" as="geometry">
            <mxPoint x="181" y="500.0000000000001" as="sourcePoint"/>
            <mxPoint x="731" y="500" as="targetPoint"/>
          </mxGeometry>
        </mxCell>
        <mxCell id="vFcQCkQcMgolOcBUj4Wx-10" value="" style="rounded=0;whiteSpace=wrap;html=1;dashed=1;fillColor=#dae8fc;strokeColor=#6c8ebf;" parent="1" vertex="1">
          <mxGeometry x="363.75" y="590" width="197.5" height="210" as="geometry"/>
        </mxCell>
        <mxCell id="vFcQCkQcMgolOcBUj4Wx-11" value="" style="verticalLabelPosition=bottom;aspect=fixed;html=1;verticalAlign=top;strokeColor=none;shape=mxgraph.citrix.users;rounded=0;shadow=0;comic=0;fontFamily=Verdana;" parent="1" vertex="1">
          <mxGeometry x="383.94000000000005" y="595" width="64.5" height="55" as="geometry"/>
        </mxCell>
        <mxCell id="vFcQCkQcMgolOcBUj4Wx-12" value="" style="verticalLabelPosition=bottom;aspect=fixed;html=1;verticalAlign=top;strokeColor=none;shape=mxgraph.citrix.users;rounded=0;shadow=0;comic=0;fontFamily=Verdana;" parent="1" vertex="1">
          <mxGeometry x="383.94000000000005" y="685" width="64.5" height="55" as="geometry"/>
        </mxCell>
        <mxCell id="vFcQCkQcMgolOcBUj4Wx-14" value="" style="verticalLabelPosition=bottom;aspect=fixed;html=1;verticalAlign=top;strokeColor=none;shape=mxgraph.citrix.users;rounded=0;shadow=0;comic=0;fontFamily=Verdana;" parent="1" vertex="1">
          <mxGeometry x="473.75" y="595" width="64.5" height="55" as="geometry"/>
        </mxCell>
        <mxCell id="vFcQCkQcMgolOcBUj4Wx-15" value="" style="verticalLabelPosition=bottom;aspect=fixed;html=1;verticalAlign=top;strokeColor=none;shape=mxgraph.citrix.users;rounded=0;shadow=0;comic=0;fontFamily=Verdana;" parent="1" vertex="1">
          <mxGeometry x="473.75" y="685" width="64.5" height="55" as="geometry"/>
        </mxCell>
        <mxCell id="vFcQCkQcMgolOcBUj4Wx-18" value="" style="shape=flexArrow;endArrow=classic;html=1;dashed=1;strokeWidth=1;fillColor=#dae8fc;strokeColor=#6c8ebf;" parent="1" edge="1">
          <mxGeometry width="50" height="50" relative="1" as="geometry">
            <mxPoint x="430" y="590" as="sourcePoint"/>
            <mxPoint x="480" y="522" as="targetPoint"/>
          </mxGeometry>
        </mxCell>
        <mxCell id="vFcQCkQcMgolOcBUj4Wx-19" value="&lt;span lang=&quot;EN-US&quot; style=&quot;white-space: normal ; font-size: 10.5pt ; font-family: , sans-serif&quot;&gt;HTTPAccess_Limit_WEB&lt;/span&gt;" style="text;html=1;resizable=0;autosize=1;align=center;verticalAlign=middle;points=[];fillColor=none;strokeColor=none;rounded=0;fontStyle=1" parent="1" vertex="1">
          <mxGeometry x="374.5" y="661" width="176" height="19" as="geometry"/>
        </mxCell>
        <mxCell id="vFcQCkQcMgolOcBUj4Wx-21" value="&lt;span style=&quot;color: rgba(0 , 0 , 0 , 0) ; font-family: monospace ; font-size: 0px&quot;&gt;%3CmxGraphModel%3E%3Croot%3E%3CmxCell%20id%3D%220%22%2F%3E%3CmxCell%20id%3D%221%22%20parent%3D%220%22%2F%3E%3CmxCell%20id%3D%222%22%20value%3D%22%26lt%3Bspan%20lang%3D%26quot%3BEN-US%26quot%3B%20style%3D%26quot%3Bwhite-space%3A%20normal%20%3B%20font-size%3A%2010.5pt%20%3B%20font-family%3A%20%2C%20sans-serif%26quot%3B%26gt%3BHTTPAccess_Limit_WEB%26lt%3B%2Fspan%26gt%3B%22%20style%3D%22text%3Bhtml%3D1%3Bresizable%3D0%3Bautosize%3D1%3Balign%3Dcenter%3BverticalAlign%3Dmiddle%3Bpoints%3D%5B%5D%3BfillColor%3Dnone%3BstrokeColor%3Dnone%3Brounded%3D0%3B%22%20vertex%3D%221%22%20parent%3D%221%22%3E%3CmxGeometry%20x%3D%2258%22%20y%3D%22640%22%20width%3D%22170%22%20height%3D%2220%22%20as%3D%22geometry%22%2F%3E%3C%2FmxCell%3E%3C%2Froot%3E%3C%2FmxGraphModel%3E&lt;/span&gt;" style="text;html=1;resizable=0;autosize=1;align=center;verticalAlign=middle;points=[];fillColor=none;strokeColor=none;rounded=0;" parent="1" vertex="1">
          <mxGeometry x="125" y="730" width="20" height="20" as="geometry"/>
        </mxCell>
        <mxCell id="vFcQCkQcMgolOcBUj4Wx-22" value="&lt;span lang=&quot;EN-US&quot; style=&quot;white-space: normal ; font-size: 10.5pt ; font-family: , sans-serif&quot;&gt;HTTPAccess_And_IM&lt;/span&gt;&lt;span style=&quot;color: rgba(0 , 0 , 0 , 0) ; font-family: monospace ; font-size: 0px&quot;&gt;3CmxGraphModel%3E%3Croot%3E%3CmxCell%20id%3D%220%22%2F%3E%3CmxCell%20id%3D%221%22%20parent%3D%220%22%2F%3E%3CmxCell%20id%3D%222%22%20value%3D%22%26lt%3Bspan%20lang%3D%26quot%3BEN-US%26quot%3B%20style%3D%26quot%3Bwhite-space%3A%20normal%20%3B%20font-size%3A%2010.5pt%20%3B%20font-family%3A%20%2C%20sans-serif%26quot%3B%26gt%3BHTTPAccess_Limit_WEB%26lt%3B%2Fspan%26gt%3B%22%20style%3D%22text%3Bhtml%3D1%3Bresizable%3D0%3Bautosize%3D1%3Balign%3Dcenter%3BverticalAlign%3Dmiddle%3Bpoints%3D%5B%5D%3BfillColor%3Dnone%3BstrokeColor%3Dnone%3Brounded%3D0%3B%22%20vertex%3D%221%22%20parent%3D%221%22%3E%3CmxGeometry%20x%3D%2258%22%20y%3D%22640%22%20width%3D%22170%22%20height%3D%2220%22%20as%3D%22geometry%22%2F%3E%3C%2FmxCell%3E%3C%2Froot%3E%3C%2FmxGraphModel%3E&lt;/span&gt;" style="text;html=1;resizable=0;autosize=1;align=center;verticalAlign=middle;points=[];fillColor=none;strokeColor=none;rounded=0;fontStyle=1" parent="1" vertex="1">
          <mxGeometry x="386.5" y="749" width="153" height="23" as="geometry"/>
        </mxCell>
        <mxCell id="vFcQCkQcMgolOcBUj4Wx-24" value="……" style="text;html=1;resizable=0;autosize=1;align=center;verticalAlign=middle;points=[];fillColor=none;strokeColor=none;rounded=0;fontStyle=1" parent="1" vertex="1">
          <mxGeometry x="436.75" y="771" width="34" height="18" as="geometry"/>
        </mxCell>
        <mxCell id="vFcQCkQcMgolOcBUj4Wx-25" value="" style="endArrow=classic;startArrow=classic;html=1;strokeWidth=3;dashed=1;fillColor=#d80073;strokeColor=#A50040;" parent="1" edge="1">
          <mxGeometry width="50" height="50" relative="1" as="geometry">
            <mxPoint x="640" y="622" as="sourcePoint"/>
            <mxPoint x="760" y="622" as="targetPoint"/>
          </mxGeometry>
        </mxCell>
        <mxCell id="vFcQCkQcMgolOcBUj4Wx-26" value="" style="endArrow=classic;startArrow=classic;html=1;strokeWidth=3;dashed=1;fillColor=#60a917;strokeColor=#2D7600;" parent="1" edge="1">
          <mxGeometry width="50" height="50" relative="1" as="geometry">
            <mxPoint x="640" y="695" as="sourcePoint"/>
            <mxPoint x="760" y="695" as="targetPoint"/>
          </mxGeometry>
        </mxCell>
        <mxCell id="vFcQCkQcMgolOcBUj4Wx-27" value="上网数据流" style="text;html=1;resizable=0;autosize=1;align=center;verticalAlign=middle;points=[];fillColor=none;strokeColor=none;rounded=0;fontStyle=1" parent="1" vertex="1">
          <mxGeometry x="665" y="711" width="70" height="18" as="geometry"/>
        </mxCell>
        <mxCell id="vFcQCkQcMgolOcBUj4Wx-28" value="认证数据流" style="text;html=1;resizable=0;autosize=1;align=center;verticalAlign=middle;points=[];fillColor=none;strokeColor=none;rounded=0;fontStyle=1" parent="1" vertex="1">
          <mxGeometry x="665" y="641" width="70" height="18" as="geometry"/>
        </mxCell>
        <mxCell id="vFcQCkQcMgolOcBUj4Wx-29" value="INTERNET" style="text;html=1;resizable=0;autosize=1;align=center;verticalAlign=middle;points=[];fillColor=none;strokeColor=none;rounded=0;strokeWidth=4;fontSize=26;fontStyle=1" parent="1" vertex="1">
          <mxGeometry x="733" y="456" width="140" height="35" as="geometry"/>
        </mxCell>
        <mxCell id="vFcQCkQcMgolOcBUj4Wx-30" value="LDAP" style="text;html=1;resizable=0;autosize=1;align=center;verticalAlign=middle;points=[];fillColor=none;strokeColor=none;rounded=0;strokeWidth=4;fontSize=26;fontStyle=1" parent="1" vertex="1">
          <mxGeometry x="503" y="155" width="81" height="35" as="geometry"/>
        </mxCell>
        <mxCell id="okbzQBwIPwilKlg-W5tC-3" value="Portal认证" style="text;html=1;resizable=0;autosize=1;align=center;verticalAlign=middle;points=[];fillColor=none;strokeColor=none;rounded=0;fontSize=12;" vertex="1" parent="1">
          <mxGeometry x="235" y="416" width="65" height="18" as="geometry"/>
        </mxCell>
        <mxCell id="okbzQBwIPwilKlg-W5tC-4" value="①" style="text;html=1;resizable=0;autosize=1;align=center;verticalAlign=middle;points=[];fillColor=none;strokeColor=none;rounded=0;fontSize=17;" vertex="1" parent="1">
          <mxGeometry x="205" y="412" width="27" height="24" as="geometry"/>
        </mxCell>
        <mxCell id="okbzQBwIPwilKlg-W5tC-5" value="②" style="text;html=1;resizable=0;autosize=1;align=center;verticalAlign=middle;points=[];fillColor=none;strokeColor=none;rounded=0;fontSize=17;" vertex="1" parent="1">
          <mxGeometry x="395" y="296" width="27" height="24" as="geometry"/>
        </mxCell>
        <mxCell id="okbzQBwIPwilKlg-W5tC-6" value="③" style="text;html=1;resizable=0;autosize=1;align=center;verticalAlign=middle;points=[];fillColor=none;strokeColor=none;rounded=0;fontSize=17;" vertex="1" parent="1">
          <mxGeometry x="205" y="523" width="27" height="24" as="geometry"/>
        </mxCell>
        <mxCell id="okbzQBwIPwilKlg-W5tC-7" value="防火墙" style="text;html=1;resizable=0;autosize=1;align=center;verticalAlign=middle;points=[];fillColor=none;strokeColor=none;rounded=0;fontStyle=1;fontSize=26;" vertex="1" parent="1">
          <mxGeometry x="419" y="450" width="88" height="35" as="geometry"/>
        </mxCell>
        <mxCell id="okbzQBwIPwilKlg-W5tC-8" value="交互信息" style="text;html=1;resizable=0;autosize=1;align=center;verticalAlign=middle;points=[];fillColor=none;strokeColor=none;rounded=0;fontSize=12;" vertex="1" parent="1">
          <mxGeometry x="367.75" y="331" width="58" height="18" as="geometry"/>
        </mxCell>
        <mxCell id="okbzQBwIPwilKlg-W5tC-9" value="认证通过，匹配安全策略访问访问网络" style="text;html=1;resizable=0;autosize=1;align=center;verticalAlign=middle;points=[];fillColor=none;strokeColor=none;rounded=0;fontSize=12;" vertex="1" parent="1">
          <mxGeometry x="232" y="529" width="214" height="18" as="geometry"/>
        </mxCell>
      </root>
    </mxGraphModel>
  </diagram>
</mxfile>
